<svg xmlns="http://www.w3.org/2000/svg" enable-background="new 0 0 92 92" viewBox="0 0 92 92" id="computer-security">
  <path fill="#FDE2FF" d="M83.58532 29.70154H57.20875c-4.095 0-7.41465-3.31965-7.41465-7.41464v-.00002c0-4.095 3.31965-7.41464 7.41465-7.41464h26.37657c4.095 0 7.41465 3.31965 7.41465 7.41464v.00002C90.99997 26.38189 87.68032 29.70154 83.58532 29.70154zM81.32133 86.78291h-6.53051c-4.09499 0-7.41464-3.31965-7.41464-7.41464v-.00002c0-4.09499 3.31965-7.41464 7.41464-7.41464h6.53051c4.09499 0 7.41465 3.31965 7.41465 7.41464v.00002C88.73598 83.46326 85.41632 86.78291 81.32133 86.78291zM18.55179 58.83992H8.41461c-4.095 0-7.41464-3.31965-7.41464-7.41465v-.00001c0-4.095 3.31965-7.41465 7.41464-7.41465h10.13717c4.095 0 7.41464 3.31965 7.41464 7.41465v.00001C25.96643 55.52027 22.64678 58.83992 18.55179 58.83992z"></path>
  <circle cx="6.169" cy="24.078" r="1.788" fill="#CEF6FD"></circle>
  <circle cx="38.764" cy="8.157" r="2.94" fill="#FF765B"></circle>
  <circle cx="86.393" cy="46.306" r="2.343" fill="#CEF6FD"></circle>
  <circle cx="13.483" cy="78.644" r="2.343" fill="#FFBF5A"></circle>
  <line x1="33.304" x2="59.497" y1="77.338" y2="77.338" fill="#77B4FF"></line>
  <rect width="17.175" height="9.857" x="37.813" y="67.48" fill="#FFF"></rect>
  <path fill="#F68CFF" d="M73.20588,68.48023H19.59491c-2.21721,0-4.01462-1.7974-4.01462-4.01462V23.75115
		c0-2.21721,1.79741-4.01462,4.01462-4.01462h53.61097c2.21722,0,4.01463,1.79741,4.01463,4.01462v40.71447
		C77.2205,66.68283,75.4231,68.48023,73.20588,68.48023z"></path>
  <path fill="#FFF" d="M71.72534,59.82105V26.54239c0-0.8603-0.69741-1.5577-1.5577-1.5577H22.63316
		c-0.8603,0-1.5577,0.69741-1.5577,1.5577v33.27866c0,0.8603,0.69741,1.5577,1.5577,1.5577h47.53448
		C71.02793,61.37875,71.72534,60.68135,71.72534,59.82105z"></path>
  <path d="M73.20589,18.73664H19.5948c-2.76489,0-5.0144,2.24951-5.0144,5.01465v40.71436c0,2.76514,2.24951,5.01465,5.0144,5.01465
			h17.21777v6.85742h-3.50879c-0.55225,0-1,0.44775-1,1s0.44775,1,1,1c11.38037,0,14.81869,0,26.19312,0c0.55225,0,1-0.44775,1-1
			s-0.44775-1-1-1h-3.50879v-6.85742h17.21778c2.76514,0,5.01465-2.24951,5.01465-5.01465V23.75129
			C78.22054,20.98615,75.97102,18.73664,73.20589,18.73664z M53.98811,76.33772H38.81257v-6.85742h15.17554V76.33772z
			 M76.22054,64.46564c0,1.66211-1.35229,3.01465-3.01465,3.01465H19.5948c-1.66211,0-3.0144-1.35254-3.0144-3.01465V23.75129
			c0-1.66211,1.35229-3.01465,3.0144-3.01465h53.61109c1.66235,0,3.01465,1.35254,3.01465,3.01465V64.46564z"></path>
  <path d="M70.16756 24.33478H22.63313c-1.21729 0-2.20752.99023-2.20752 2.20752v33.27881c0 1.21729.99023 2.20752 2.20752 2.20752h47.53443c1.21753 0 2.20776-.99023 2.20776-2.20752V26.5423C72.37532 25.32502 71.38509 24.33478 70.16756 24.33478zM71.07552 59.82111c0 .50049-.40747.90771-.90796.90771H22.63313c-.50049 0-.90771-.40723-.90771-.90771V26.5423c0-.50049.40723-.90771.90771-.90771h47.53443c.50049 0 .90796.40723.90796.90771V59.82111zM48.57454 64.17512h-4.34814c-.27612 0-.5.22363-.5.5s.22388.5.5.5h4.34814c.27612 0 .5-.22363.5-.5S48.85066 64.17512 48.57454 64.17512z"></path>
  <g>
    <path fill="#F68CFF" d="M42.86852,54.07584c-3.76868-2.21973-6.1097-6.31607-6.1097-10.68997v-9.04629l9.45882-4.02473
			l9.45861,4.02433v9.04669c0,4.3739-2.34102,8.47024-6.1095,10.68997l-3.34911,1.97274L42.86852,54.07584z"></path>
  </g>
  <g>
    <path fill="#FFF" d="M44.95173,46.12824c-0.29614,0-0.58887-0.13086-0.78564-0.38037l-1.59106-2.01611
			c-0.34229-0.43359-0.26807-1.0625,0.16553-1.40479c0.43335-0.34229,1.06201-0.26807,1.4043,0.16553l0.99268,1.25781
			l3.71118-2.72607c0.44482-0.32813,1.07104-0.23145,1.39795,0.21338c0.3269,0.44531,0.2312,1.07129-0.21387,1.39795
			l-4.48975,3.29834C45.36506,46.06476,45.15754,46.12824,44.95173,46.12824z"></path>
  </g>
</svg>
